<?xml version="1.0" encoding="UTF-8" standalone="no"?>
<svg width="77px" height="83px" viewBox="0 0 77 83" version="1.1" xmlns="http://www.w3.org/2000/svg" xmlns:xlink="http://www.w3.org/1999/xlink">
    <!-- Generator: Sketch 49.3 (51167) - http://www.bohemiancoding.com/sketch -->
    <title>Group 2</title>
    <desc>Created with Sketch.</desc>
    <defs>
        <linearGradient x1="45.2273101%" y1="67.2842492%" x2="22.2546348%" y2="-104.086162%" id="linearGradient-1">
            <stop stop-color="#6510FF" offset="0%"></stop>
            <stop stop-color="#7E72F7" offset="100%"></stop>
        </linearGradient>
        <path d="M5,41 L5,41 C7.76142375,41 10,43.2385763 10,46 L10,54 C10,56.7614237 7.76142375,59 5,59 L5,59 C2.23857625,59 3.38176876e-16,56.7614237 0,54 L0,46 C-3.38176876e-16,43.2385763 2.23857625,41 5,41 Z" id="path-2"></path>
        <filter x="-200.0%" y="-88.9%" width="500.0%" height="322.2%" filterUnits="objectBoundingBox" id="filter-3">
            <feOffset dx="0" dy="4" in="SourceAlpha" result="shadowOffsetOuter1"></feOffset>
            <feGaussianBlur stdDeviation="6" in="shadowOffsetOuter1" result="shadowBlurOuter1"></feGaussianBlur>
            <feColorMatrix values="0 0 0 0 0.396078431   0 0 0 0 0.062745098   0 0 0 0 1  0 0 0 0.3 0" type="matrix" in="shadowBlurOuter1"></feColorMatrix>
        </filter>
        <path d="M48,17 L48,17 C50.7614237,17 53,19.2385763 53,22 L53,54 C53,56.7614237 50.7614237,59 48,59 L48,59 C45.2385763,59 43,56.7614237 43,54 L43,22 C43,19.2385763 45.2385763,17 48,17 Z" id="path-4"></path>
        <filter x="-200.0%" y="-38.1%" width="500.0%" height="195.2%" filterUnits="objectBoundingBox" id="filter-5">
            <feOffset dx="0" dy="4" in="SourceAlpha" result="shadowOffsetOuter1"></feOffset>
            <feGaussianBlur stdDeviation="6" in="shadowOffsetOuter1" result="shadowBlurOuter1"></feGaussianBlur>
            <feColorMatrix values="0 0 0 0 0.396078431   0 0 0 0 0.062745098   0 0 0 0 1  0 0 0 0.3 0" type="matrix" in="shadowBlurOuter1"></feColorMatrix>
        </filter>
        <path d="M26,30 L26,30 C28.7614237,30 31,32.2385763 31,35 L31,54 C31,56.7614237 28.7614237,59 26,59 L26,59 C23.2385763,59 21,56.7614237 21,54 L21,35 C21,32.2385763 23.2385763,30 26,30 Z" id="path-6"></path>
        <filter x="-200.0%" y="-55.2%" width="500.0%" height="237.9%" filterUnits="objectBoundingBox" id="filter-7">
            <feOffset dx="0" dy="4" in="SourceAlpha" result="shadowOffsetOuter1"></feOffset>
            <feGaussianBlur stdDeviation="6" in="shadowOffsetOuter1" result="shadowBlurOuter1"></feGaussianBlur>
            <feColorMatrix values="0 0 0 0 0.396078431   0 0 0 0 0.062745098   0 0 0 0 1  0 0 0 0.3 0" type="matrix" in="shadowBlurOuter1"></feColorMatrix>
        </filter>
        <polyline id="path-8" points="21 0 40 1.40590394 34.0494883 20"></polyline>
        <filter x="-105.3%" y="-80.0%" width="310.5%" height="300.0%" filterUnits="objectBoundingBox" id="filter-9">
            <feOffset dx="0" dy="4" in="SourceAlpha" result="shadowOffsetOuter1"></feOffset>
            <feGaussianBlur stdDeviation="6" in="shadowOffsetOuter1" result="shadowBlurOuter1"></feGaussianBlur>
            <feColorMatrix values="0 0 0 0 0.396078431   0 0 0 0 0.062745098   0 0 0 0 1  0 0 0 0.3 0" type="matrix" in="shadowBlurOuter1"></feColorMatrix>
        </filter>
    </defs>
    <g id="Page-1" stroke="none" stroke-width="1" fill="none" fill-rule="evenodd">
        <g id="about" transform="translate(-468.000000, -704.000000)">
            <g id="happier_life" transform="translate(113.000000, 107.000000)">
                <g id="bubbles" transform="translate(324.000000, 490.000000)">
                    <g id="Group-2" transform="translate(43.000000, 115.000000)">
                        <g id="Rectangle-2">
                            <use fill="black" fill-opacity="1" filter="url(#filter-3)" xlink:href="#path-2"></use>
                            <use fill="url(#linearGradient-1)" fill-rule="evenodd" xlink:href="#path-2"></use>
                        </g>
                        <g id="Rectangle-2-Copy-2">
                            <use fill="black" fill-opacity="1" filter="url(#filter-5)" xlink:href="#path-4"></use>
                            <use fill="url(#linearGradient-1)" fill-rule="evenodd" xlink:href="#path-4"></use>
                        </g>
                        <g id="Rectangle-2-Copy">
                            <use fill="black" fill-opacity="1" filter="url(#filter-7)" xlink:href="#path-6"></use>
                            <use fill="url(#linearGradient-1)" fill-rule="evenodd" xlink:href="#path-6"></use>
                        </g>
                        <path d="M4,25 L32,8" id="Path-3" stroke="#6923FD" stroke-width="8" stroke-linecap="round"></path>
                        <g id="Path-4">
                            <use fill="black" fill-opacity="1" filter="url(#filter-9)" xlink:href="#path-8"></use>
                            <use fill="url(#linearGradient-1)" fill-rule="evenodd" xlink:href="#path-8"></use>
                        </g>
                    </g>
                </g>
            </g>
        </g>
    </g>
</svg>