<?xml version="1.0" encoding="UTF-8" standalone="no"?>
<svg width="69px" height="80px" viewBox="0 0 69 80" version="1.1" xmlns="http://www.w3.org/2000/svg" xmlns:xlink="http://www.w3.org/1999/xlink">
    <!-- Generator: Sketch 49.3 (51167) - http://www.bohemiancoding.com/sketch -->
    <title>Group</title>
    <desc>Created with Sketch.</desc>
    <defs>
        <linearGradient x1="-52.4359339%" y1="-32.4753763%" x2="56.3483332%" y2="50%" id="linearGradient-1">
            <stop stop-color="#8B67FF" offset="0%"></stop>
            <stop stop-color="#6C2BFD" offset="100%"></stop>
        </linearGradient>
        <linearGradient x1="45.2273101%" y1="67.2842492%" x2="22.2546348%" y2="-104.086162%" id="linearGradient-2">
            <stop stop-color="#6510FF" offset="0%"></stop>
            <stop stop-color="#7E72F7" offset="100%"></stop>
        </linearGradient>
        <path d="M30.09375,43.4082031 L27.7382812,43.4082031 L27.7382812,41.0527344 C22.9921875,40.7011719 19.8632812,37.9765625 19.8457031,34.0566406 L22.8515625,34.0566406 C23.0449219,36.4121094 24.8378906,37.9765625 27.7382812,38.328125 L27.7382812,29.1875 L26.3320312,28.8007812 C22.5703125,27.8164062 20.4609375,25.5136719 20.4609375,22.2441406 C20.4609375,18.3945312 23.2558594,15.7753906 27.7382812,15.3359375 L27.7382812,12.875 L30.09375,12.875 L30.09375,15.3183594 C34.4882812,15.6875 37.3710938,18.4121094 37.4941406,22.2089844 L34.5058594,22.2089844 C34.4355469,20.0292969 32.6953125,18.359375 30.09375,18.0429688 L30.09375,26.6386719 L31.5878906,27.0078125 C35.8769531,28.1503906 37.9335938,30.2773438 37.9335938,33.828125 C37.9335938,37.9941406 35.0332031,40.6308594 30.09375,41.0351562 L30.09375,43.4082031 Z M34.8925781,34.0742188 C34.8925781,31.7539062 33.4160156,30.3652344 30.09375,29.6621094 L30.09375,38.3808594 C33.1523438,38.2226562 34.8925781,36.640625 34.8925781,34.0742188 Z M23.484375,22.0683594 C23.484375,24.1601562 24.9609375,25.5488281 27.7382812,26.1289062 L27.7382812,18.0429688 C25.2773438,18.1835938 23.484375,19.8535156 23.484375,22.0683594 Z" id="path-3"></path>
        <filter x="-110.6%" y="-52.4%" width="321.1%" height="231.0%" filterUnits="objectBoundingBox" id="filter-4">
            <feOffset dx="0" dy="4" in="SourceAlpha" result="shadowOffsetOuter1"></feOffset>
            <feGaussianBlur stdDeviation="6" in="shadowOffsetOuter1" result="shadowBlurOuter1"></feGaussianBlur>
            <feColorMatrix values="0 0 0 0 0.396078431   0 0 0 0 0.062745098   0 0 0 0 1  0 0 0 0.3 0" type="matrix" in="shadowBlurOuter1"></feColorMatrix>
        </filter>
    </defs>
    <g id="Page-1" stroke="none" stroke-width="1" fill="none" fill-rule="evenodd">
        <g id="about" transform="translate(-677.000000, -830.000000)">
            <g id="happier_life" transform="translate(113.000000, 107.000000)">
                <g id="bubbles" transform="translate(324.000000, 490.000000)">
                    <g id="Group" transform="translate(245.000000, 238.000000)">
                        <circle id="Oval" stroke="url(#linearGradient-1)" stroke-width="10" cx="29.5" cy="29.5" r="29.5"></circle>
                        <path d="M48.6447005,56.7501211 L57.755443,69.5559417" id="Path-3-Copy" stroke="#6923FD" stroke-width="10" stroke-linecap="round"></path>
                        <g id="$">
                            <use fill="black" fill-opacity="1" filter="url(#filter-4)" xlink:href="#path-3"></use>
                            <use fill="url(#linearGradient-2)" fill-rule="evenodd" xlink:href="#path-3"></use>
                        </g>
                    </g>
                </g>
            </g>
        </g>
    </g>
</svg>